ply
format ascii 1.0
element vertex 27
property float end_x
property float end_y
property float end_z
property int path_id
property int group_id
end_header
3.358846 -4.971735 0.000000 0 0
4.275831 -4.209189 0.000000 1 0
5.023880 -3.280339 0.000000 2 0
4.701673 -3.727502 0.000000 3 0
5.346039 -2.723943 0.000000 4 0
5.779187 -1.612762 0.000000 5 0
5.606813 -2.136270 0.000000 6 0
5.918576 -0.985121 0.000000 7 0
5.996499 0.204949 0.000000 8 0
5.249874 -2.904964 0.000000 9 1
5.720725 -1.809228 0.000000 10 1
5.965553 -0.642010 0.000000 11 1
5.881472 -1.186714 0.000000 12 1
6.000000 0.000000 0.000000 13 1
5.881472 1.186714 0.000000 14 1
5.965553 0.642010 0.000000 15 1
5.720725 1.809228 0.000000 16 1
5.249874 2.904964 0.000000 17 1
5.996499 -0.204949 0.000000 18 2
5.918576 0.985121 0.000000 19 2
5.606813 2.136270 0.000000 20 2
5.779187 1.612762 0.000000 21 2
5.346039 2.723943 0.000000 22 2
4.701673 3.727502 0.000000 23 2
5.023880 3.280339 0.000000 24 2
4.275831 4.209189 0.000000 25 2
3.358846 4.971735 0.000000 26 2
