ply
format ascii 1.0
element vertex 603
property float x
property float y
property float z
property int group_id
end_header
0.000000 0.000000 0.000000 0
0.010000 -0.000024 0.000000 0
0.020000 -0.000094 0.000000 0
0.029999 -0.000212 0.000000 0
0.039998 -0.000377 0.000000 0
0.049997 -0.000589 0.000000 0
0.059994 -0.000848 0.000000 0
0.069990 -0.001154 0.000000 0
0.079986 -0.001508 0.000000 0
0.089980 -0.001908 0.000000 0
0.099972 -0.002356 0.000000 0
0.109963 -0.002851 0.000000 0
0.119952 -0.003392 0.000000 0
0.129939 -0.003981 0.000000 0
0.139924 -0.004617 0.000000 0
0.149906 -0.005300 0.000000 0
0.159886 -0.006030 0.000000 0
0.169864 -0.006808 0.000000 0
0.179838 -0.007632 0.000000 0
0.189810 -0.008503 0.000000 0
0.199778 -0.009421 0.000000 0
0.209743 -0.010387 0.000000 0
0.219704 -0.011399 0.000000 0
0.229662 -0.012458 0.000000 0
0.239616 -0.013564 0.000000 0
0.249566 -0.014718 0.000000 0
0.259512 -0.015918 0.000000 0
0.269454 -0.017165 0.000000 0
0.279391 -0.018459 0.000000 0
0.289323 -0.019800 0.000000 0
0.299251 -0.021188 0.000000 0
0.309173 -0.022623 0.000000 0
0.319091 -0.024105 0.000000 0
0.329003 -0.025633 0.000000 0
0.338910 -0.027208 0.000000 0
0.348811 -0.028831 0.000000 0
0.358706 -0.030500 0.000000 0
0.368595 -0.032215 0.000000 0
0.378478 -0.033978 0.000000 0
0.388355 -0.035787 0.000000 0
0.398225 -0.037643 0.000000 0
0.408088 -0.039546 0.000000 0
0.417945 -0.041495 0.000000 0
0.427795 -0.043492 0.000000 0
0.437638 -0.045534 0.000000 0
0.447473 -0.047624 0.000000 0
0.457301 -0.049760 0.000000 0
0.467121 -0.051942 0.000000 0
0.476933 -0.054171 0.000000 0
0.486738 -0.056447 0.000000 0
0.496534 -0.058769 0.000000 0
0.506322 -0.061137 0.000000 0
0.516102 -0.063552 0.000000 0
0.525873 -0.066014 0.000000 0
0.535635 -0.068521 0.000000 0
0.545388 -0.071076 0.000000 0
0.555132 -0.073676 0.000000 0
0.564867 -0.076323 0.000000 0
0.574592 -0.079016 0.000000 0
0.584308 -0.081755 0.000000 0
0.594014 -0.084541 0.000000 0
0.603710 -0.087372 0.000000 0
0.613396 -0.090250 0.000000 0
0.623072 -0.093174 0.000000 0
0.632737 -0.096144 0.000000 0
0.642392 -0.099161 0.000000 0
0.652036 -0.102223 0.000000 0
0.661669 -0.105331 0.000000 0
0.671291 -0.108485 0.000000 0
0.680901 -0.111685 0.000000 0
0.690500 -0.114931 0.000000 0
0.700088 -0.118223 0.000000 0
0.709664 -0.121560 0.000000 0
0.719228 -0.124943 0.000000 0
0.728780 -0.128372 0.000000 0
0.738320 -0.131847 0.000000 0
0.747847 -0.135368 0.000000 0
0.757362 -0.138934 0.000000 0
0.766864 -0.142545 0.000000 0
0.776354 -0.146202 0.000000 0
0.785830 -0.149905 0.000000 0
0.795293 -0.153653 0.000000 0
0.804743 -0.157447 0.000000 0
0.814179 -0.161286 0.000000 0
0.823601 -0.165170 0.000000 0
0.833010 -0.169099 0.000000 0
0.842405 -0.173074 0.000000 0
0.851785 -0.177094 0.000000 0
0.861151 -0.181159 0.000000 0
0.870503 -0.185269 0.000000 0
0.879840 -0.189425 0.000000 0
0.889162 -0.193625 0.000000 0
0.898469 -0.197870 0.000000 0
0.907762 -0.202160 0.000000 0
0.917039 -0.206495 0.000000 0
0.926300 -0.210875 0.000000 0
0.935546 -0.215300 0.000000 0
0.944776 -0.219769 0.000000 0
0.953990 -0.224283 0.000000 0
0.963188 -0.228842 0.000000 0
0.972370 -0.233445 0.000000 0
0.981535 -0.238093 0.000000 0
0.990684 -0.242785 0.000000 0
0.999816 -0.247522 0.000000 0
1.008932 -0.252303 0.000000 0
1.018030 -0.257129 0.000000 0
1.027111 -0.261998 0.000000 0
1.036175 -0.266912 0.000000 0
1.045221 -0.271870 0.000000 0
1.054249 -0.276872 0.000000 0
1.063260 -0.281918 0.000000 0
1.072253 -0.287008 0.000000 0
1.081227 -0.292142 0.000000 0
1.090184 -0.297320 0.000000 0
1.099122 -0.302542 0.000000 0
1.108041 -0.307808 0.000000 0
1.116941 -0.313117 0.000000 0
1.125823 -0.318470 0.000000 0
1.134685 -0.323866 0.000000 0
1.143529 -0.329306 0.000000 0
1.152352 -0.334789 0.000000 0
1.161157 -0.340316 0.000000 0
1.169941 -0.345886 0.000000 0
1.178706 -0.351500 0.000000 0
1.187451 -0.357156 0.000000 0
1.196175 -0.362856 0.000000 0
1.204880 -0.368599 0.000000 0
1.213563 -0.374384 0.000000 0
1.222227 -0.380213 0.000000 0
1.230869 -0.386085 0.000000 0
1.239490 -0.391999 0.000000 0
1.248091 -0.397957 0.000000 0
1.256670 -0.403956 0.000000 0
1.265228 -0.409999 0.000000 0
1.273764 -0.416084 0.000000 0
1.282278 -0.422212 0.000000 0
1.290771 -0.428382 0.000000 0
1.299241 -0.434594 0.000000 0
1.307690 -0.440849 0.000000 0
1.316116 -0.447145 0.000000 0
1.324520 -0.453484 0.000000 0
1.332901 -0.459865 0.000000 0
1.341259 -0.466288 0.000000 0
1.349594 -0.472753 0.000000 0
1.357906 -0.479260 0.000000 0
1.366195 -0.485809 0.000000 0
1.374461 -0.492399 0.000000 0
1.382703 -0.499031 0.000000 0
1.390922 -0.505704 0.000000 0
1.399116 -0.512419 0.000000 0
1.407287 -0.519176 0.000000 0
1.415434 -0.525973 0.000000 0
1.423556 -0.532812 0.000000 0
1.431654 -0.539692 0.000000 0
1.439727 -0.546613 0.000000 0
1.447776 -0.553576 0.000000 0
1.455799 -0.560579 0.000000 0
1.463798 -0.567623 0.000000 0
1.471771 -0.574708 0.000000 0
1.479720 -0.581833 0.000000 0
1.487642 -0.588999 0.000000 0
1.495540 -0.596206 0.000000 0
1.503411 -0.603453 0.000000 0
1.511256 -0.610741 0.000000 0
1.519076 -0.618068 0.000000 0
1.526869 -0.625437 0.000000 0
1.534636 -0.632845 0.000000 0
1.542376 -0.640293 0.000000 0
1.550090 -0.647781 0.000000 0
1.557777 -0.655309 0.000000 0
1.565437 -0.662877 0.000000 0
1.573070 -0.670485 0.000000 0
1.580676 -0.678132 0.000000 0
1.588255 -0.685819 0.000000 0
1.595806 -0.693545 0.000000 0
1.603329 -0.701310 0.000000 0
1.610824 -0.709115 0.000000 0
1.618292 -0.716959 0.000000 0
1.625732 -0.724843 0.000000 0
1.633143 -0.732765 0.000000 0
1.640526 -0.740726 0.000000 0
1.647880 -0.748726 0.000000 0
1.655206 -0.756764 0.000000 0
1.662503 -0.764842 0.000000 0
1.669771 -0.772958 0.000000 0
1.677010 -0.781112 0.000000 0
1.684220 -0.789305 0.000000 0
1.691401 -0.797536 0.000000 0
1.698552 -0.805805 0.000000 0
1.705673 -0.814113 0.000000 0
1.712765 -0.822458 0.000000 0
1.719826 -0.830841 0.000000 0
1.726858 -0.839262 0.000000 0
1.733860 -0.847721 0.000000 0
1.740831 -0.856218 0.000000 0
1.747771 -0.864752 0.000000 0
1.754681 -0.873323 0.000000 0
1.761561 -0.881932 0.000000 0
1.768409 -0.890578 0.000000 0
1.775227 -0.899261 0.000000 0
1.782013 -0.907981 0.000000 0
0.000000 0.000000 0.000000 1
0.010000 0.000000 0.000000 1
0.020000 0.000000 0.000000 1
0.030000 0.000000 0.000000 1
0.040000 0.000000 0.000000 1
0.050000 0.000000 0.000000 1
0.060000 0.000000 0.000000 1
0.070000 0.000000 0.000000 1
0.080000 0.000000 0.000000 1
0.090000 0.000000 0.000000 1
0.100000 0.000000 0.000000 1
0.110000 0.000000 0.000000 1
0.120000 0.000000 0.000000 1
0.130000 0.000000 0.000000 1
0.140000 0.000000 0.000000 1
0.150000 0.000000 0.000000 1
0.160000 0.000000 0.000000 1
0.170000 0.000000 0.000000 1
0.180000 0.000000 0.000000 1
0.190000 0.000000 0.000000 1
0.200000 0.000000 0.000000 1
0.210000 0.000000 0.000000 1
0.220000 0.000000 0.000000 1
0.230000 0.000000 0.000000 1
0.240000 0.000000 0.000000 1
0.250000 0.000000 0.000000 1
0.260000 0.000000 0.000000 1
0.270000 0.000000 0.000000 1
0.280000 0.000000 0.000000 1
0.290000 0.000000 0.000000 1
0.300000 0.000000 0.000000 1
0.310000 0.000000 0.000000 1
0.320000 0.000000 0.000000 1
0.330000 0.000000 0.000000 1
0.340000 0.000000 0.000000 1
0.350000 0.000000 0.000000 1
0.360000 0.000000 0.000000 1
0.370000 0.000000 0.000000 1
0.380000 0.000000 0.000000 1
0.390000 0.000000 0.000000 1
0.400000 0.000000 0.000000 1
0.410000 0.000000 0.000000 1
0.420000 0.000000 0.000000 1
0.430000 0.000000 0.000000 1
0.440000 0.000000 0.000000 1
0.450000 0.000000 0.000000 1
0.460000 0.000000 0.000000 1
0.470000 0.000000 0.000000 1
0.480000 0.000000 0.000000 1
0.490000 0.000000 0.000000 1
0.500000 0.000000 0.000000 1
0.510000 0.000000 0.000000 1
0.520000 0.000000 0.000000 1
0.530000 0.000000 0.000000 1
0.540000 0.000000 0.000000 1
0.550000 0.000000 0.000000 1
0.560000 0.000000 0.000000 1
0.570000 0.000000 0.000000 1
0.580000 0.000000 0.000000 1
0.590000 0.000000 0.000000 1
0.600000 0.000000 0.000000 1
0.610000 0.000000 0.000000 1
0.620000 0.000000 0.000000 1
0.630000 0.000000 0.000000 1
0.640000 0.000000 0.000000 1
0.650000 0.000000 0.000000 1
0.660000 0.000000 0.000000 1
0.670000 0.000000 0.000000 1
0.680000 0.000000 0.000000 1
0.690000 0.000000 0.000000 1
0.700000 0.000000 0.000000 1
0.710000 0.000000 0.000000 1
0.720000 0.000000 0.000000 1
0.730000 0.000000 0.000000 1
0.740000 0.000000 0.000000 1
0.750000 0.000000 0.000000 1
0.760000 0.000000 0.000000 1
0.770000 0.000000 0.000000 1
0.780000 0.000000 0.000000 1
0.790000 0.000000 0.000000 1
0.800000 0.000000 0.000000 1
0.810000 0.000000 0.000000 1
0.820000 0.000000 0.000000 1
0.830000 0.000000 0.000000 1
0.840000 0.000000 0.000000 1
0.850000 0.000000 0.000000 1
0.860000 0.000000 0.000000 1
0.870000 0.000000 0.000000 1
0.880000 0.000000 0.000000 1
0.890000 0.000000 0.000000 1
0.900000 0.000000 0.000000 1
0.910000 0.000000 0.000000 1
0.920000 0.000000 0.000000 1
0.930000 0.000000 0.000000 1
0.940000 0.000000 0.000000 1
0.950000 0.000000 0.000000 1
0.960000 0.000000 0.000000 1
0.970000 0.000000 0.000000 1
0.980000 0.000000 0.000000 1
0.990000 0.000000 0.000000 1
1.000000 0.000000 0.000000 1
1.010000 0.000000 0.000000 1
1.020000 0.000000 0.000000 1
1.030000 0.000000 0.000000 1
1.040000 0.000000 0.000000 1
1.050000 0.000000 0.000000 1
1.060000 0.000000 0.000000 1
1.070000 0.000000 0.000000 1
1.080000 0.000000 0.000000 1
1.090000 0.000000 0.000000 1
1.100000 0.000000 0.000000 1
1.110000 0.000000 0.000000 1
1.120000 0.000000 0.000000 1
1.130000 0.000000 0.000000 1
1.140000 0.000000 0.000000 1
1.150000 0.000000 0.000000 1
1.160000 0.000000 0.000000 1
1.170000 0.000000 0.000000 1
1.180000 0.000000 0.000000 1
1.190000 0.000000 0.000000 1
1.200000 0.000000 0.000000 1
1.210000 0.000000 0.000000 1
1.220000 0.000000 0.000000 1
1.230000 0.000000 0.000000 1
1.240000 0.000000 0.000000 1
1.250000 0.000000 0.000000 1
1.260000 0.000000 0.000000 1
1.270000 0.000000 0.000000 1
1.280000 0.000000 0.000000 1
1.290000 0.000000 0.000000 1
1.300000 0.000000 0.000000 1
1.310000 0.000000 0.000000 1
1.320000 0.000000 0.000000 1
1.330000 0.000000 0.000000 1
1.340000 0.000000 0.000000 1
1.350000 0.000000 0.000000 1
1.360000 0.000000 0.000000 1
1.370000 0.000000 0.000000 1
1.380000 0.000000 0.000000 1
1.390000 0.000000 0.000000 1
1.400000 0.000000 0.000000 1
1.410000 0.000000 0.000000 1
1.420000 0.000000 0.000000 1
1.430000 0.000000 0.000000 1
1.440000 0.000000 0.000000 1
1.450000 0.000000 0.000000 1
1.460000 0.000000 0.000000 1
1.470000 0.000000 0.000000 1
1.480000 0.000000 0.000000 1
1.490000 0.000000 0.000000 1
1.500000 0.000000 0.000000 1
1.510000 0.000000 0.000000 1
1.520000 0.000000 0.000000 1
1.530000 0.000000 0.000000 1
1.540000 0.000000 0.000000 1
1.550000 0.000000 0.000000 1
1.560000 0.000000 0.000000 1
1.570000 0.000000 0.000000 1
1.580000 0.000000 0.000000 1
1.590000 0.000000 0.000000 1
1.600000 0.000000 0.000000 1
1.610000 0.000000 0.000000 1
1.620000 0.000000 0.000000 1
1.630000 0.000000 0.000000 1
1.640000 0.000000 0.000000 1
1.650000 0.000000 0.000000 1
1.660000 0.000000 0.000000 1
1.670000 0.000000 0.000000 1
1.680000 0.000000 0.000000 1
1.690000 0.000000 0.000000 1
1.700000 0.000000 0.000000 1
1.710000 0.000000 0.000000 1
1.720000 0.000000 0.000000 1
1.730000 0.000000 0.000000 1
1.740000 0.000000 0.000000 1
1.750000 0.000000 0.000000 1
1.760000 0.000000 0.000000 1
1.770000 0.000000 0.000000 1
1.780000 0.000000 0.000000 1
1.790000 0.000000 0.000000 1
1.800000 0.000000 0.000000 1
1.810000 0.000000 0.000000 1
1.820000 0.000000 0.000000 1
1.830000 0.000000 0.000000 1
1.840000 0.000000 0.000000 1
1.850000 0.000000 0.000000 1
1.860000 0.000000 0.000000 1
1.870000 0.000000 0.000000 1
1.880000 0.000000 0.000000 1
1.890000 0.000000 0.000000 1
1.900000 0.000000 0.000000 1
1.910000 0.000000 0.000000 1
1.920000 0.000000 0.000000 1
1.930000 0.000000 0.000000 1
1.940000 0.000000 0.000000 1
1.950000 0.000000 0.000000 1
1.960000 0.000000 0.000000 1
1.970000 0.000000 0.000000 1
1.980000 0.000000 0.000000 1
1.990000 0.000000 0.000000 1
2.000000 0.000000 0.000000 1
0.000000 0.000000 0.000000 2
0.010000 0.000024 0.000000 2
0.020000 0.000094 0.000000 2
0.029999 0.000212 0.000000 2
0.039998 0.000377 0.000000 2
0.049997 0.000589 0.000000 2
0.059994 0.000848 0.000000 2
0.069990 0.001154 0.000000 2
0.079986 0.001508 0.000000 2
0.089980 0.001908 0.000000 2
0.099972 0.002356 0.000000 2
0.109963 0.002851 0.000000 2
0.119952 0.003392 0.000000 2
0.129939 0.003981 0.000000 2
0.139924 0.004617 0.000000 2
0.149906 0.005300 0.000000 2
0.159886 0.006030 0.000000 2
0.169864 0.006808 0.000000 2
0.179838 0.007632 0.000000 2
0.189810 0.008503 0.000000 2
0.199778 0.009421 0.000000 2
0.209743 0.010387 0.000000 2
0.219704 0.011399 0.000000 2
0.229662 0.012458 0.000000 2
0.239616 0.013564 0.000000 2
0.249566 0.014718 0.000000 2
0.259512 0.015918 0.000000 2
0.269454 0.017165 0.000000 2
0.279391 0.018459 0.000000 2
0.289323 0.019800 0.000000 2
0.299251 0.021188 0.000000 2
0.309173 0.022623 0.000000 2
0.319091 0.024105 0.000000 2
0.329003 0.025633 0.000000 2
0.338910 0.027208 0.000000 2
0.348811 0.028831 0.000000 2
0.358706 0.030500 0.000000 2
0.368595 0.032215 0.000000 2
0.378478 0.033978 0.000000 2
0.388355 0.035787 0.000000 2
0.398225 0.037643 0.000000 2
0.408088 0.039546 0.000000 2
0.417945 0.041495 0.000000 2
0.427795 0.043492 0.000000 2
0.437638 0.045534 0.000000 2
0.447473 0.047624 0.000000 2
0.457301 0.049760 0.000000 2
0.467121 0.051942 0.000000 2
0.476933 0.054171 0.000000 2
0.486738 0.056447 0.000000 2
0.496534 0.058769 0.000000 2
0.506322 0.061137 0.000000 2
0.516102 0.063552 0.000000 2
0.525873 0.066014 0.000000 2
0.535635 0.068521 0.000000 2
0.545388 0.071076 0.000000 2
0.555132 0.073676 0.000000 2
0.564867 0.076323 0.000000 2
0.574592 0.079016 0.000000 2
0.584308 0.081755 0.000000 2
0.594014 0.084541 0.000000 2
0.603710 0.087372 0.000000 2
0.613396 0.090250 0.000000 2
0.623072 0.093174 0.000000 2
0.632737 0.096144 0.000000 2
0.642392 0.099161 0.000000 2
0.652036 0.102223 0.000000 2
0.661669 0.105331 0.000000 2
0.671291 0.108485 0.000000 2
0.680901 0.111685 0.000000 2
0.690500 0.114931 0.000000 2
0.700088 0.118223 0.000000 2
0.709664 0.121560 0.000000 2
0.719228 0.124943 0.000000 2
0.728780 0.128372 0.000000 2
0.738320 0.131847 0.000000 2
0.747847 0.135368 0.000000 2
0.757362 0.138934 0.000000 2
0.766864 0.142545 0.000000 2
0.776354 0.146202 0.000000 2
0.785830 0.149905 0.000000 2
0.795293 0.153653 0.000000 2
0.804743 0.157447 0.000000 2
0.814179 0.161286 0.000000 2
0.823601 0.165170 0.000000 2
0.833010 0.169099 0.000000 2
0.842405 0.173074 0.000000 2
0.851785 0.177094 0.000000 2
0.861151 0.181159 0.000000 2
0.870503 0.185269 0.000000 2
0.879840 0.189425 0.000000 2
0.889162 0.193625 0.000000 2
0.898469 0.197870 0.000000 2
0.907762 0.202160 0.000000 2
0.917039 0.206495 0.000000 2
0.926300 0.210875 0.000000 2
0.935546 0.215300 0.000000 2
0.944776 0.219769 0.000000 2
0.953990 0.224283 0.000000 2
0.963188 0.228842 0.000000 2
0.972370 0.233445 0.000000 2
0.981535 0.238093 0.000000 2
0.990684 0.242785 0.000000 2
0.999816 0.247522 0.000000 2
1.008932 0.252303 0.000000 2
1.018030 0.257129 0.000000 2
1.027111 0.261998 0.000000 2
1.036175 0.266912 0.000000 2
1.045221 0.271870 0.000000 2
1.054249 0.276872 0.000000 2
1.063260 0.281918 0.000000 2
1.072253 0.287008 0.000000 2
1.081227 0.292142 0.000000 2
1.090184 0.297320 0.000000 2
1.099122 0.302542 0.000000 2
1.108041 0.307808 0.000000 2
1.116941 0.313117 0.000000 2
1.125823 0.318470 0.000000 2
1.134685 0.323866 0.000000 2
1.143529 0.329306 0.000000 2
1.152352 0.334789 0.000000 2
1.161157 0.340316 0.000000 2
1.169941 0.345886 0.000000 2
1.178706 0.351500 0.000000 2
1.187451 0.357156 0.000000 2
1.196175 0.362856 0.000000 2
1.204880 0.368599 0.000000 2
1.213563 0.374384 0.000000 2
1.222227 0.380213 0.000000 2
1.230869 0.386085 0.000000 2
1.239490 0.391999 0.000000 2
1.248091 0.397957 0.000000 2
1.256670 0.403956 0.000000 2
1.265228 0.409999 0.000000 2
1.273764 0.416084 0.000000 2
1.282278 0.422212 0.000000 2
1.290771 0.428382 0.000000 2
1.299241 0.434594 0.000000 2
1.307690 0.440849 0.000000 2
1.316116 0.447145 0.000000 2
1.324520 0.453484 0.000000 2
1.332901 0.459865 0.000000 2
1.341259 0.466288 0.000000 2
1.349594 0.472753 0.000000 2
1.357906 0.479260 0.000000 2
1.366195 0.485809 0.000000 2
1.374461 0.492399 0.000000 2
1.382703 0.499031 0.000000 2
1.390922 0.505704 0.000000 2
1.399116 0.512419 0.000000 2
1.407287 0.519176 0.000000 2
1.415434 0.525973 0.000000 2
1.423556 0.532812 0.000000 2
1.431654 0.539692 0.000000 2
1.439727 0.546613 0.000000 2
1.447776 0.553576 0.000000 2
1.455799 0.560579 0.000000 2
1.463798 0.567623 0.000000 2
1.471771 0.574708 0.000000 2
1.479720 0.581833 0.000000 2
1.487642 0.588999 0.000000 2
1.495540 0.596206 0.000000 2
1.503411 0.603453 0.000000 2
1.511256 0.610741 0.000000 2
1.519076 0.618068 0.000000 2
1.526869 0.625437 0.000000 2
1.534636 0.632845 0.000000 2
1.542376 0.640293 0.000000 2
1.550090 0.647781 0.000000 2
1.557777 0.655309 0.000000 2
1.565437 0.662877 0.000000 2
1.573070 0.670485 0.000000 2
1.580676 0.678132 0.000000 2
1.588255 0.685819 0.000000 2
1.595806 0.693545 0.000000 2
1.603329 0.701310 0.000000 2
1.610824 0.709115 0.000000 2
1.618292 0.716959 0.000000 2
1.625732 0.724843 0.000000 2
1.633143 0.732765 0.000000 2
1.640526 0.740726 0.000000 2
1.647880 0.748726 0.000000 2
1.655206 0.756764 0.000000 2
1.662503 0.764842 0.000000 2
1.669771 0.772958 0.000000 2
1.677010 0.781112 0.000000 2
1.684220 0.789305 0.000000 2
1.691401 0.797536 0.000000 2
1.698552 0.805805 0.000000 2
1.705673 0.814113 0.000000 2
1.712765 0.822458 0.000000 2
1.719826 0.830841 0.000000 2
1.726858 0.839262 0.000000 2
1.733860 0.847721 0.000000 2
1.740831 0.856218 0.000000 2
1.747771 0.864752 0.000000 2
1.754681 0.873323 0.000000 2
1.761561 0.881932 0.000000 2
1.768409 0.890578 0.000000 2
1.775227 0.899261 0.000000 2
1.782013 0.907981 0.000000 2
