ply
format ascii 1.0
element vertex 27
property float end_x
property float end_y
property float end_z
property int path_id
property int group_id
end_header
1.679423 -2.485868 0.000000 0 0
2.137916 -2.104594 0.000000 1 0
2.511940 -1.640170 0.000000 2 0
2.350836 -1.863751 0.000000 3 0
2.673020 -1.361971 0.000000 4 0
2.889593 -0.806381 0.000000 5 0
2.803406 -1.068135 0.000000 6 0
2.959288 -0.492561 0.000000 7 0
2.998249 0.102475 0.000000 8 0
2.624937 -1.452482 0.000000 9 1
2.860363 -0.904614 0.000000 10 1
2.982777 -0.321005 0.000000 11 1
2.940736 -0.593357 0.000000 12 1
3.000000 0.000000 0.000000 13 1
2.940736 0.593357 0.000000 14 1
2.982777 0.321005 0.000000 15 1
2.860363 0.904614 0.000000 16 1
2.624937 1.452482 0.000000 17 1
2.998249 -0.102475 0.000000 18 2
2.959288 0.492561 0.000000 19 2
2.803406 1.068135 0.000000 20 2
2.889593 0.806381 0.000000 21 2
2.673020 1.361971 0.000000 22 2
2.350836 1.863751 0.000000 23 2
2.511940 1.640170 0.000000 24 2
2.137916 2.104594 0.000000 25 2
1.679423 2.485868 0.000000 26 2
