ply
format ascii 1.0
element vertex 303
property float x
property float y
property float z
property int group_id
end_header
0.000000 0.000000 0.000000 0
0.010000 -0.000047 0.000000 0
0.019999 -0.000188 0.000000 0
0.029997 -0.000424 0.000000 0
0.039993 -0.000754 0.000000 0
0.049986 -0.001178 0.000000 0
0.059976 -0.001696 0.000000 0
0.069962 -0.002309 0.000000 0
0.079943 -0.003015 0.000000 0
0.089919 -0.003816 0.000000 0
0.099889 -0.004711 0.000000 0
0.109852 -0.005699 0.000000 0
0.119808 -0.006782 0.000000 0
0.129756 -0.007959 0.000000 0
0.139695 -0.009230 0.000000 0
0.149625 -0.010594 0.000000 0
0.159545 -0.012052 0.000000 0
0.169455 -0.013604 0.000000 0
0.179353 -0.015250 0.000000 0
0.189239 -0.016989 0.000000 0
0.199112 -0.018822 0.000000 0
0.208973 -0.020748 0.000000 0
0.218819 -0.022767 0.000000 0
0.228650 -0.024880 0.000000 0
0.238467 -0.027086 0.000000 0
0.248267 -0.029384 0.000000 0
0.258051 -0.031776 0.000000 0
0.267817 -0.034261 0.000000 0
0.277566 -0.036838 0.000000 0
0.287296 -0.039508 0.000000 0
0.297007 -0.042270 0.000000 0
0.306698 -0.045125 0.000000 0
0.316369 -0.048072 0.000000 0
0.326018 -0.051111 0.000000 0
0.335645 -0.054242 0.000000 0
0.345250 -0.057465 0.000000 0
0.354832 -0.060780 0.000000 0
0.364390 -0.064186 0.000000 0
0.373924 -0.067684 0.000000 0
0.383432 -0.071273 0.000000 0
0.392915 -0.074953 0.000000 0
0.402371 -0.078723 0.000000 0
0.411801 -0.082585 0.000000 0
0.421202 -0.086537 0.000000 0
0.430576 -0.090580 0.000000 0
0.439920 -0.094712 0.000000 0
0.449235 -0.098935 0.000000 0
0.458519 -0.103248 0.000000 0
0.467773 -0.107650 0.000000 0
0.476995 -0.112142 0.000000 0
0.486185 -0.116723 0.000000 0
0.495342 -0.121393 0.000000 0
0.504466 -0.126152 0.000000 0
0.513555 -0.130999 0.000000 0
0.522610 -0.135935 0.000000 0
0.531630 -0.140959 0.000000 0
0.540614 -0.146071 0.000000 0
0.549561 -0.151271 0.000000 0
0.558471 -0.156558 0.000000 0
0.567343 -0.161933 0.000000 0
0.576176 -0.167395 0.000000 0
0.584971 -0.172943 0.000000 0
0.593725 -0.178578 0.000000 0
0.602440 -0.184299 0.000000 0
0.611113 -0.190107 0.000000 0
0.619745 -0.196000 0.000000 0
0.628335 -0.201978 0.000000 0
0.636882 -0.208042 0.000000 0
0.645385 -0.214191 0.000000 0
0.653845 -0.220424 0.000000 0
0.662260 -0.226742 0.000000 0
0.670629 -0.233144 0.000000 0
0.678953 -0.239630 0.000000 0
0.687231 -0.246199 0.000000 0
0.695461 -0.252852 0.000000 0
0.703644 -0.259588 0.000000 0
0.711778 -0.266406 0.000000 0
0.719863 -0.273307 0.000000 0
0.727900 -0.280289 0.000000 0
0.735886 -0.287354 0.000000 0
0.743821 -0.294500 0.000000 0
0.751705 -0.301727 0.000000 0
0.759538 -0.309034 0.000000 0
0.767318 -0.316422 0.000000 0
0.775045 -0.323891 0.000000 0
0.782719 -0.331439 0.000000 0
0.790338 -0.339066 0.000000 0
0.797903 -0.346772 0.000000 0
0.805412 -0.354558 0.000000 0
0.812866 -0.362421 0.000000 0
0.820263 -0.370363 0.000000 0
0.827603 -0.378382 0.000000 0
0.834886 -0.386479 0.000000 0
0.842110 -0.394652 0.000000 0
0.849276 -0.402903 0.000000 0
0.856382 -0.411229 0.000000 0
0.863429 -0.419631 0.000000 0
0.870415 -0.428109 0.000000 0
0.877341 -0.436661 0.000000 0
0.884205 -0.445289 0.000000 0
0.891007 -0.453990 0.000000 0
0.000000 0.000000 0.000000 1
0.010000 0.000000 0.000000 1
0.020000 0.000000 0.000000 1
0.030000 0.000000 0.000000 1
0.040000 0.000000 0.000000 1
0.050000 0.000000 0.000000 1
0.060000 0.000000 0.000000 1
0.070000 0.000000 0.000000 1
0.080000 0.000000 0.000000 1
0.090000 0.000000 0.000000 1
0.100000 0.000000 0.000000 1
0.110000 0.000000 0.000000 1
0.120000 0.000000 0.000000 1
0.130000 0.000000 0.000000 1
0.140000 0.000000 0.000000 1
0.150000 0.000000 0.000000 1
0.160000 0.000000 0.000000 1
0.170000 0.000000 0.000000 1
0.180000 0.000000 0.000000 1
0.190000 0.000000 0.000000 1
0.200000 0.000000 0.000000 1
0.210000 0.000000 0.000000 1
0.220000 0.000000 0.000000 1
0.230000 0.000000 0.000000 1
0.240000 0.000000 0.000000 1
0.250000 0.000000 0.000000 1
0.260000 0.000000 0.000000 1
0.270000 0.000000 0.000000 1
0.280000 0.000000 0.000000 1
0.290000 0.000000 0.000000 1
0.300000 0.000000 0.000000 1
0.310000 0.000000 0.000000 1
0.320000 0.000000 0.000000 1
0.330000 0.000000 0.000000 1
0.340000 0.000000 0.000000 1
0.350000 0.000000 0.000000 1
0.360000 0.000000 0.000000 1
0.370000 0.000000 0.000000 1
0.380000 0.000000 0.000000 1
0.390000 0.000000 0.000000 1
0.400000 0.000000 0.000000 1
0.410000 0.000000 0.000000 1
0.420000 0.000000 0.000000 1
0.430000 0.000000 0.000000 1
0.440000 0.000000 0.000000 1
0.450000 0.000000 0.000000 1
0.460000 0.000000 0.000000 1
0.470000 0.000000 0.000000 1
0.480000 0.000000 0.000000 1
0.490000 0.000000 0.000000 1
0.500000 0.000000 0.000000 1
0.510000 0.000000 0.000000 1
0.520000 0.000000 0.000000 1
0.530000 0.000000 0.000000 1
0.540000 0.000000 0.000000 1
0.550000 0.000000 0.000000 1
0.560000 0.000000 0.000000 1
0.570000 0.000000 0.000000 1
0.580000 0.000000 0.000000 1
0.590000 0.000000 0.000000 1
0.600000 0.000000 0.000000 1
0.610000 0.000000 0.000000 1
0.620000 0.000000 0.000000 1
0.630000 0.000000 0.000000 1
0.640000 0.000000 0.000000 1
0.650000 0.000000 0.000000 1
0.660000 0.000000 0.000000 1
0.670000 0.000000 0.000000 1
0.680000 0.000000 0.000000 1
0.690000 0.000000 0.000000 1
0.700000 0.000000 0.000000 1
0.710000 0.000000 0.000000 1
0.720000 0.000000 0.000000 1
0.730000 0.000000 0.000000 1
0.740000 0.000000 0.000000 1
0.750000 0.000000 0.000000 1
0.760000 0.000000 0.000000 1
0.770000 0.000000 0.000000 1
0.780000 0.000000 0.000000 1
0.790000 0.000000 0.000000 1
0.800000 0.000000 0.000000 1
0.810000 0.000000 0.000000 1
0.820000 0.000000 0.000000 1
0.830000 0.000000 0.000000 1
0.840000 0.000000 0.000000 1
0.850000 0.000000 0.000000 1
0.860000 0.000000 0.000000 1
0.870000 0.000000 0.000000 1
0.880000 0.000000 0.000000 1
0.890000 0.000000 0.000000 1
0.900000 0.000000 0.000000 1
0.910000 0.000000 0.000000 1
0.920000 0.000000 0.000000 1
0.930000 0.000000 0.000000 1
0.940000 0.000000 0.000000 1
0.950000 0.000000 0.000000 1
0.960000 0.000000 0.000000 1
0.970000 0.000000 0.000000 1
0.980000 0.000000 0.000000 1
0.990000 0.000000 0.000000 1
1.000000 0.000000 0.000000 1
0.000000 0.000000 0.000000 2
0.010000 0.000047 0.000000 2
0.019999 0.000188 0.000000 2
0.029997 0.000424 0.000000 2
0.039993 0.000754 0.000000 2
0.049986 0.001178 0.000000 2
0.059976 0.001696 0.000000 2
0.069962 0.002309 0.000000 2
0.079943 0.003015 0.000000 2
0.089919 0.003816 0.000000 2
0.099889 0.004711 0.000000 2
0.109852 0.005699 0.000000 2
0.119808 0.006782 0.000000 2
0.129756 0.007959 0.000000 2
0.139695 0.009230 0.000000 2
0.149625 0.010594 0.000000 2
0.159545 0.012052 0.000000 2
0.169455 0.013604 0.000000 2
0.179353 0.015250 0.000000 2
0.189239 0.016989 0.000000 2
0.199112 0.018822 0.000000 2
0.208973 0.020748 0.000000 2
0.218819 0.022767 0.000000 2
0.228650 0.024880 0.000000 2
0.238467 0.027086 0.000000 2
0.248267 0.029384 0.000000 2
0.258051 0.031776 0.000000 2
0.267817 0.034261 0.000000 2
0.277566 0.036838 0.000000 2
0.287296 0.039508 0.000000 2
0.297007 0.042270 0.000000 2
0.306698 0.045125 0.000000 2
0.316369 0.048072 0.000000 2
0.326018 0.051111 0.000000 2
0.335645 0.054242 0.000000 2
0.345250 0.057465 0.000000 2
0.354832 0.060780 0.000000 2
0.364390 0.064186 0.000000 2
0.373924 0.067684 0.000000 2
0.383432 0.071273 0.000000 2
0.392915 0.074953 0.000000 2
0.402371 0.078723 0.000000 2
0.411801 0.082585 0.000000 2
0.421202 0.086537 0.000000 2
0.430576 0.090580 0.000000 2
0.439920 0.094712 0.000000 2
0.449235 0.098935 0.000000 2
0.458519 0.103248 0.000000 2
0.467773 0.107650 0.000000 2
0.476995 0.112142 0.000000 2
0.486185 0.116723 0.000000 2
0.495342 0.121393 0.000000 2
0.504466 0.126152 0.000000 2
0.513555 0.130999 0.000000 2
0.522610 0.135935 0.000000 2
0.531630 0.140959 0.000000 2
0.540614 0.146071 0.000000 2
0.549561 0.151271 0.000000 2
0.558471 0.156558 0.000000 2
0.567343 0.161933 0.000000 2
0.576176 0.167395 0.000000 2
0.584971 0.172943 0.000000 2
0.593725 0.178578 0.000000 2
0.602440 0.184299 0.000000 2
0.611113 0.190107 0.000000 2
0.619745 0.196000 0.000000 2
0.628335 0.201978 0.000000 2
0.636882 0.208042 0.000000 2
0.645385 0.214191 0.000000 2
0.653845 0.220424 0.000000 2
0.662260 0.226742 0.000000 2
0.670629 0.233144 0.000000 2
0.678953 0.239630 0.000000 2
0.687231 0.246199 0.000000 2
0.695461 0.252852 0.000000 2
0.703644 0.259588 0.000000 2
0.711778 0.266406 0.000000 2
0.719863 0.273307 0.000000 2
0.727900 0.280289 0.000000 2
0.735886 0.287354 0.000000 2
0.743821 0.294500 0.000000 2
0.751705 0.301727 0.000000 2
0.759538 0.309034 0.000000 2
0.767318 0.316422 0.000000 2
0.775045 0.323891 0.000000 2
0.782719 0.331439 0.000000 2
0.790338 0.339066 0.000000 2
0.797903 0.346772 0.000000 2
0.805412 0.354558 0.000000 2
0.812866 0.362421 0.000000 2
0.820263 0.370363 0.000000 2
0.827603 0.378382 0.000000 2
0.834886 0.386479 0.000000 2
0.842110 0.394652 0.000000 2
0.849276 0.402903 0.000000 2
0.856382 0.411229 0.000000 2
0.863429 0.419631 0.000000 2
0.870415 0.428109 0.000000 2
0.877341 0.436661 0.000000 2
0.884205 0.445289 0.000000 2
0.891007 0.453990 0.000000 2
